<svg xmlns="http://www.w3.org/2000/svg" width="162.65" height="33.54" class="site-logo" viewBox="0 0 162.65 33.54"><path d="M0 0v33.54h43.6V0Zm5.92 24.89 5.54-9.49 3.72 9.49Zm11.27 0L10.82 8.65h9.24l6.37 16.24Zm11.24 0L22.06 8.65h9.24l6.37 16.24Z" class="fill-brand-secondary"/><path d="M70.46 5.72h2v22.06h-5.74V18L62 22.88h-.63L56.76 18v9.8H51V5.72h2.08l8.61 9.55Zm39.23 15.08c0-1.54-1.82-1.79-4-1.92-4.78-.35-7.92-2-8-6.76-.19-9.49 16.9-9.49 16.78 0h-5.34c0-2.92-5.91-2.67-6.1-.06-.13 1.66 1.51 2 3.49 2.23 4.37.47 8.64 1 8.64 6.54 0 9.24-17.91 9.49-17.79-.19h5.44c0 2.8 6.88 2.73 6.88.16m20.44 0c0-1.54-1.82-1.79-4-1.92-4.77-.35-7.92-2-8-6.76-.19-9.49 16.91-9.49 16.78 0h-5.34c0-2.92-5.91-2.67-6.1-.06-.12 1.66 1.51 2 3.49 2.23 4.37.47 8.64 1 8.64 6.54 0 9.24-17.91 9.49-17.79-.19h5.43c.01 2.8 6.89 2.73 6.89.16m14.6 2.09v4.93h-5.56V5.83h5.56zm9.94-2.2v7.13h-5.72v-22h13.7v5h-8v4.81h7.07v5ZM86.89 5.55h-2.42L74.57 27v.82h5.5l1.29-2.77H90l1.29 2.77h5.5V27ZM83.4 20l2.26-5.06L88 20Z" class="fill-fg"/></svg>